<svg width="16" height="16" viewBox="0 0 16 16" fill="none" xmlns="http://www.w3.org/2000/svg">
<g clip-path="url(#clip0_552_39)">
<rect width="16" height="16" fill="#FFC567"/>
<g filter="url(#filter0_d_552_39)">
<mask id="path-1-outside-1_552_39" maskUnits="userSpaceOnUse" x="0" y="4" width="16" height="9" fill="black">
<rect fill="white" y="4" width="16" height="9"/>
<path d="M2.92592 9.6005V11.951C2.83615 11.9755 2.69332 12 2.49744 12.0245C2.30972 12.049 2.12201 12.0612 1.93429 12.0612C1.74658 12.0612 1.57926 12.0449 1.43236 12.0122C1.29361 11.9878 1.17527 11.9388 1.07733 11.8653C0.98755 11.7919 0.918177 11.6899 0.869207 11.5593C0.820238 11.4287 0.795753 11.2573 0.795753 11.0451V5.27895C0.795753 5.10755 0.840642 4.97697 0.930419 4.88719C1.02836 4.78925 1.15894 4.71172 1.32217 4.65459C1.59967 4.55665 1.92205 4.48727 2.28932 4.44647C2.65659 4.3975 3.04835 4.37301 3.46459 4.37301C4.59088 4.37301 5.43969 4.6097 6.011 5.08307C6.58231 5.55644 6.86796 6.19712 6.86796 7.00512C6.86796 7.51114 6.73738 7.9437 6.47621 8.30281C6.21504 8.66192 5.9049 8.93941 5.54579 9.13529C5.8396 9.53521 6.12934 9.91064 6.415 10.2616C6.70065 10.6125 6.92509 10.9308 7.08832 11.2165C7.00671 11.5021 6.85572 11.7225 6.63536 11.8776C6.42316 12.0245 6.18239 12.0979 5.91306 12.0979C5.7335 12.0979 5.57843 12.0775 5.44785 12.0367C5.31726 11.9959 5.203 11.9388 5.10506 11.8653C5.00712 11.7919 4.91735 11.7021 4.83573 11.596C4.75412 11.4899 4.67658 11.3756 4.60313 11.2532L3.57477 9.6005H2.92592ZM3.69719 7.97226C4.00733 7.97226 4.25218 7.89473 4.43173 7.73966C4.61129 7.57643 4.70106 7.33974 4.70106 7.0296C4.70106 6.71946 4.59905 6.48686 4.39501 6.33179C4.19913 6.16856 3.88491 6.08694 3.45234 6.08694C3.32992 6.08694 3.23198 6.09102 3.15853 6.09918C3.08507 6.10735 3.00346 6.11959 2.91368 6.13591V7.97226H3.69719ZM14.8813 10.788C14.8813 11.041 14.8365 11.2287 14.7467 11.3512C14.6569 11.4736 14.5141 11.5919 14.3182 11.7062C14.2039 11.7715 14.0611 11.8368 13.8897 11.9021C13.7183 11.9592 13.5306 12.0082 13.3266 12.049C13.1225 12.0979 12.9062 12.1347 12.6777 12.1592C12.4574 12.1836 12.237 12.1959 12.0166 12.1959C11.429 12.1959 10.8781 12.1183 10.3639 11.9633C9.84974 11.8 9.40085 11.5593 9.01726 11.241C8.64183 10.9145 8.34393 10.5105 8.12357 10.029C7.90321 9.54745 7.79302 8.98838 7.79302 8.35178C7.79302 7.68253 7.91137 7.09898 8.14805 6.60112C8.3929 6.10326 8.7112 5.69111 9.10296 5.36464C9.50287 5.03002 9.95584 4.78109 10.4619 4.61786C10.976 4.45463 11.5025 4.37301 12.0411 4.37301C12.8165 4.37301 13.4286 4.49952 13.8775 4.75252C14.3345 4.99737 14.563 5.31975 14.563 5.71967C14.563 5.93187 14.51 6.11551 14.4039 6.27058C14.2978 6.42565 14.1754 6.54807 14.0366 6.63785C13.8326 6.51542 13.5755 6.39708 13.2654 6.28282C12.9634 6.1604 12.6206 6.09918 12.237 6.09918C11.5514 6.09918 11.0046 6.29506 10.5965 6.68682C10.1966 7.07857 9.99665 7.62132 9.99665 8.31505C9.99665 8.69048 10.0497 9.01695 10.1558 9.29444C10.2701 9.56377 10.4211 9.78821 10.6088 9.96777C10.7965 10.1392 11.0128 10.2697 11.2576 10.3595C11.5025 10.4411 11.7636 10.4819 12.0411 10.4819C12.2207 10.4819 12.3798 10.4656 12.5186 10.433C12.6573 10.4003 12.7634 10.3636 12.8369 10.3228V9.17202H11.5269C11.478 9.08224 11.429 8.9639 11.38 8.81699C11.3392 8.67008 11.3188 8.51501 11.3188 8.35178C11.3188 8.05796 11.3841 7.84576 11.5147 7.71518C11.6534 7.58459 11.8289 7.5193 12.0411 7.5193H14.1101C14.3549 7.5193 14.5426 7.58867 14.6732 7.72742C14.812 7.858 14.8813 8.04572 14.8813 8.29057V10.788Z"/>
</mask>
<path d="M2.92592 9.6005V11.951C2.83615 11.9755 2.69332 12 2.49744 12.0245C2.30972 12.049 2.12201 12.0612 1.93429 12.0612C1.74658 12.0612 1.57926 12.0449 1.43236 12.0122C1.29361 11.9878 1.17527 11.9388 1.07733 11.8653C0.98755 11.7919 0.918177 11.6899 0.869207 11.5593C0.820238 11.4287 0.795753 11.2573 0.795753 11.0451V5.27895C0.795753 5.10755 0.840642 4.97697 0.930419 4.88719C1.02836 4.78925 1.15894 4.71172 1.32217 4.65459C1.59967 4.55665 1.92205 4.48727 2.28932 4.44647C2.65659 4.3975 3.04835 4.37301 3.46459 4.37301C4.59088 4.37301 5.43969 4.6097 6.011 5.08307C6.58231 5.55644 6.86796 6.19712 6.86796 7.00512C6.86796 7.51114 6.73738 7.9437 6.47621 8.30281C6.21504 8.66192 5.9049 8.93941 5.54579 9.13529C5.8396 9.53521 6.12934 9.91064 6.415 10.2616C6.70065 10.6125 6.92509 10.9308 7.08832 11.2165C7.00671 11.5021 6.85572 11.7225 6.63536 11.8776C6.42316 12.0245 6.18239 12.0979 5.91306 12.0979C5.7335 12.0979 5.57843 12.0775 5.44785 12.0367C5.31726 11.9959 5.203 11.9388 5.10506 11.8653C5.00712 11.7919 4.91735 11.7021 4.83573 11.596C4.75412 11.4899 4.67658 11.3756 4.60313 11.2532L3.57477 9.6005H2.92592ZM3.69719 7.97226C4.00733 7.97226 4.25218 7.89473 4.43173 7.73966C4.61129 7.57643 4.70106 7.33974 4.70106 7.0296C4.70106 6.71946 4.59905 6.48686 4.39501 6.33179C4.19913 6.16856 3.88491 6.08694 3.45234 6.08694C3.32992 6.08694 3.23198 6.09102 3.15853 6.09918C3.08507 6.10735 3.00346 6.11959 2.91368 6.13591V7.97226H3.69719ZM14.8813 10.788C14.8813 11.041 14.8365 11.2287 14.7467 11.3512C14.6569 11.4736 14.5141 11.5919 14.3182 11.7062C14.2039 11.7715 14.0611 11.8368 13.8897 11.9021C13.7183 11.9592 13.5306 12.0082 13.3266 12.049C13.1225 12.0979 12.9062 12.1347 12.6777 12.1592C12.4574 12.1836 12.237 12.1959 12.0166 12.1959C11.429 12.1959 10.8781 12.1183 10.3639 11.9633C9.84974 11.8 9.40085 11.5593 9.01726 11.241C8.64183 10.9145 8.34393 10.5105 8.12357 10.029C7.90321 9.54745 7.79302 8.98838 7.79302 8.35178C7.79302 7.68253 7.91137 7.09898 8.14805 6.60112C8.3929 6.10326 8.7112 5.69111 9.10296 5.36464C9.50287 5.03002 9.95584 4.78109 10.4619 4.61786C10.976 4.45463 11.5025 4.37301 12.0411 4.37301C12.8165 4.37301 13.4286 4.49952 13.8775 4.75252C14.3345 4.99737 14.563 5.31975 14.563 5.71967C14.563 5.93187 14.51 6.11551 14.4039 6.27058C14.2978 6.42565 14.1754 6.54807 14.0366 6.63785C13.8326 6.51542 13.5755 6.39708 13.2654 6.28282C12.9634 6.1604 12.6206 6.09918 12.237 6.09918C11.5514 6.09918 11.0046 6.29506 10.5965 6.68682C10.1966 7.07857 9.99665 7.62132 9.99665 8.31505C9.99665 8.69048 10.0497 9.01695 10.1558 9.29444C10.2701 9.56377 10.4211 9.78821 10.6088 9.96777C10.7965 10.1392 11.0128 10.2697 11.2576 10.3595C11.5025 10.4411 11.7636 10.4819 12.0411 10.4819C12.2207 10.4819 12.3798 10.4656 12.5186 10.433C12.6573 10.4003 12.7634 10.3636 12.8369 10.3228V9.17202H11.5269C11.478 9.08224 11.429 8.9639 11.38 8.81699C11.3392 8.67008 11.3188 8.51501 11.3188 8.35178C11.3188 8.05796 11.3841 7.84576 11.5147 7.71518C11.6534 7.58459 11.8289 7.5193 12.0411 7.5193H14.1101C14.3549 7.5193 14.5426 7.58867 14.6732 7.72742C14.812 7.858 14.8813 8.04572 14.8813 8.29057V10.788Z" fill="white"/>
<path d="M2.92592 9.6005V9.3505H2.67592V9.6005H2.92592ZM2.92592 11.951L2.9917 12.1922L3.17592 12.142V11.951H2.92592ZM2.49744 12.0245L2.46643 11.7764L2.46511 11.7766L2.49744 12.0245ZM1.43236 12.0122L1.48664 11.768L1.4758 11.766L1.43236 12.0122ZM1.07733 11.8653L0.918877 12.059L0.927327 12.0653L1.07733 11.8653ZM0.869207 11.5593L0.635125 11.6471L0.635125 11.6471L0.869207 11.5593ZM0.930419 4.88719L1.1072 5.06397L1.1072 5.06397L0.930419 4.88719ZM1.32217 4.65459L1.40476 4.89055L1.40538 4.89033L1.32217 4.65459ZM2.28932 4.44647L2.31694 4.695L2.32236 4.69427L2.28932 4.44647ZM6.011 5.08307L5.85149 5.27557L5.85149 5.27557L6.011 5.08307ZM6.47621 8.30281L6.67839 8.44985L6.67839 8.44985L6.47621 8.30281ZM5.54579 9.13529L5.42607 8.91581L5.17496 9.05279L5.34432 9.28331L5.54579 9.13529ZM6.415 10.2616L6.60889 10.1038L6.60889 10.1038L6.415 10.2616ZM7.08832 11.2165L7.32871 11.2852L7.35764 11.1839L7.30539 11.0925L7.08832 11.2165ZM6.63536 11.8776L6.77766 12.0831L6.77923 12.082L6.63536 11.8776ZM5.44785 12.0367L5.52242 11.7981L5.44785 12.0367ZM5.10506 11.8653L5.25506 11.6653L5.10506 11.8653ZM4.83573 11.596L4.63757 11.7484L4.63758 11.7484L4.83573 11.596ZM4.60313 11.2532L4.81753 11.1246L4.81539 11.1211L4.60313 11.2532ZM3.57477 9.6005L3.78703 9.46842L3.71366 9.3505H3.57477V9.6005ZM4.43173 7.73966L4.59519 7.92893L4.5999 7.92464L4.43173 7.73966ZM4.39501 6.33179L4.2348 6.52404L4.24374 6.53083L4.39501 6.33179ZM2.91368 6.13591L2.86896 5.88994L2.66368 5.92727V6.13591H2.91368ZM2.91368 7.97226H2.66368V8.22226H2.91368V7.97226ZM2.67592 9.6005V11.951H3.17592V9.6005H2.67592ZM2.86014 11.7098C2.78853 11.7294 2.66055 11.7521 2.46643 11.7764L2.52845 12.2726C2.72608 12.2479 2.88376 12.2217 2.9917 12.1922L2.86014 11.7098ZM2.46511 11.7766C2.28802 11.7997 2.1111 11.8112 1.93429 11.8112V12.3112C2.13291 12.3112 2.33143 12.2983 2.52978 12.2724L2.46511 11.7766ZM1.93429 11.8112C1.76054 11.8112 1.61195 11.7961 1.48659 11.7682L1.37812 12.2563C1.54657 12.2937 1.73261 12.3112 1.93429 12.3112V11.8112ZM1.4758 11.766C1.36986 11.7474 1.28944 11.7119 1.22733 11.6653L0.927327 12.0653C1.0611 12.1657 1.21736 12.2282 1.38891 12.2584L1.4758 11.766ZM1.23564 11.6718C1.18631 11.6315 1.13991 11.5691 1.10329 11.4715L0.635125 11.6471C0.696447 11.8106 0.788793 11.9523 0.919018 12.0588L1.23564 11.6718ZM1.10329 11.4715C1.06884 11.3796 1.04575 11.2413 1.04575 11.0451H0.545753C0.545753 11.2733 0.571632 11.4777 0.635125 11.6471L1.10329 11.4715ZM1.04575 11.0451V5.27895H0.545753V11.0451H1.04575ZM1.04575 5.27895C1.04575 5.14999 1.07884 5.09232 1.1072 5.06397L0.753643 4.71041C0.602443 4.86161 0.545753 5.06511 0.545753 5.27895H1.04575ZM1.1072 5.06397C1.17282 4.99834 1.26838 4.93828 1.40476 4.89055L1.23959 4.41862C1.0495 4.48515 0.883895 4.58016 0.753642 4.71041L1.1072 5.06397ZM1.40538 4.89033C1.661 4.80011 1.96403 4.73415 2.31693 4.69494L2.26171 4.19799C1.88007 4.2404 1.53833 4.31318 1.23897 4.41884L1.40538 4.89033ZM2.32236 4.69427C2.67744 4.64693 3.05807 4.62301 3.46459 4.62301V4.12301C3.03862 4.12301 2.63574 4.14806 2.25628 4.19866L2.32236 4.69427ZM3.46459 4.62301C4.56154 4.62301 5.34314 4.85436 5.85149 5.27557L6.1705 4.89056C5.53624 4.36503 4.62023 4.12301 3.46459 4.12301V4.62301ZM5.85149 5.27557C6.35992 5.69684 6.61796 6.26403 6.61796 7.00512H7.11796C7.11796 6.13022 6.80469 5.41604 6.1705 4.89056L5.85149 5.27557ZM6.61796 7.00512C6.61796 7.46598 6.49989 7.8452 6.27402 8.15577L6.67839 8.44985C6.97487 8.0422 7.11796 7.55629 7.11796 7.00512H6.61796ZM6.27402 8.15577C6.03275 8.48752 5.74996 8.73915 5.42607 8.91581L5.6655 9.35476C6.05984 9.13967 6.39733 8.83631 6.67839 8.44985L6.27402 8.15577ZM5.34432 9.28331C5.64035 9.68624 5.93261 10.065 6.2211 10.4194L6.60889 10.1038C6.32607 9.75631 6.03886 9.38417 5.74726 8.98727L5.34432 9.28331ZM6.2211 10.4194C6.50108 10.7634 6.7168 11.0702 6.87126 11.3405L7.30539 11.0925C7.13338 10.7914 6.90022 10.4617 6.60889 10.1038L6.2211 10.4194ZM6.84794 11.1478C6.78032 11.3845 6.66024 11.5544 6.49148 11.6731L6.77923 12.082C7.0512 11.8906 7.2331 11.6198 7.32871 11.2852L6.84794 11.1478ZM6.49306 11.672C6.32455 11.7887 6.13389 11.8479 5.91306 11.8479V12.3479C6.23089 12.3479 6.52176 12.2603 6.77766 12.0831L6.49306 11.672ZM5.91306 11.8479C5.75137 11.8479 5.62268 11.8294 5.52242 11.7981L5.37328 12.2753C5.53419 12.3256 5.71564 12.3479 5.91306 12.3479V11.8479ZM5.52242 11.7981C5.41582 11.7648 5.32773 11.7198 5.25506 11.6653L4.95506 12.0653C5.07828 12.1577 5.2187 12.227 5.37328 12.2753L5.52242 11.7981ZM5.25506 11.6653C5.17686 11.6067 5.10296 11.5334 5.03389 11.4436L4.63758 11.7484C4.73173 11.8708 4.83739 11.9771 4.95506 12.0653L5.25506 11.6653ZM5.03389 11.4436C4.9585 11.3456 4.88633 11.2393 4.8175 11.1246L4.38875 11.3818C4.46683 11.512 4.54973 11.6342 4.63757 11.7484L5.03389 11.4436ZM4.81539 11.1211L3.78703 9.46842L3.3625 9.73257L4.39086 11.3853L4.81539 11.1211ZM3.57477 9.3505H2.92592V9.8505H3.57477V9.3505ZM3.69719 8.22226C4.04856 8.22226 4.35774 8.13389 4.59514 7.92887L4.26833 7.55045C4.14661 7.65557 3.9661 7.72226 3.69719 7.72226V8.22226ZM4.5999 7.92464C4.84523 7.70162 4.95106 7.38933 4.95106 7.0296H4.45106C4.45106 7.29016 4.37735 7.45124 4.26356 7.55467L4.5999 7.92464ZM4.95106 7.0296C4.95106 6.6597 4.82581 6.3452 4.54628 6.13275L4.24374 6.53083C4.37228 6.62852 4.45106 6.77923 4.45106 7.0296H4.95106ZM4.55505 6.13973C4.29216 5.92065 3.90613 5.83694 3.45234 5.83694V6.33694C3.86369 6.33694 4.1061 6.41646 4.23496 6.52384L4.55505 6.13973ZM3.45234 5.83694C3.32583 5.83694 3.21752 5.84109 3.13092 5.85071L3.18614 6.34765C3.24644 6.34095 3.33401 6.33694 3.45234 6.33694V5.83694ZM3.13092 5.85071C3.05059 5.85964 2.96316 5.87282 2.86896 5.88994L2.9584 6.38188C3.04376 6.36636 3.11955 6.35505 3.18614 6.34765L3.13092 5.85071ZM2.66368 6.13591V7.97226H3.16368V6.13591H2.66368ZM2.91368 8.22226H3.69719V7.72226H2.91368V8.22226ZM14.7467 11.3512L14.9483 11.499L14.9483 11.499L14.7467 11.3512ZM14.3182 11.7062L14.4422 11.9233L14.4442 11.9221L14.3182 11.7062ZM13.8897 11.9021L13.9688 12.1394L13.9787 12.1357L13.8897 11.9021ZM13.3266 12.049L13.2775 11.8036L13.2682 11.8059L13.3266 12.049ZM12.6777 12.1592L12.6511 11.9106L12.6501 11.9107L12.6777 12.1592ZM10.3639 11.9633L10.2883 12.2016L10.2917 12.2026L10.3639 11.9633ZM9.01726 11.241L8.85317 11.4297L8.85762 11.4334L9.01726 11.241ZM8.12357 10.029L8.3509 9.92495L8.3509 9.92495L8.12357 10.029ZM8.14805 6.60112L7.9237 6.49078L7.92227 6.49378L8.14805 6.60112ZM9.10296 5.36464L9.263 5.5567L9.26339 5.55638L9.10296 5.36464ZM10.4619 4.61786L10.3862 4.37957L10.3851 4.37993L10.4619 4.61786ZM13.8775 4.75252L13.7547 4.97036L13.7594 4.9729L13.8775 4.75252ZM14.4039 6.27058L14.6102 6.41175L14.6102 6.41175L14.4039 6.27058ZM14.0366 6.63785L13.908 6.85222L14.0416 6.93239L14.1724 6.84774L14.0366 6.63785ZM13.2654 6.28282L13.1714 6.51462L13.1789 6.51741L13.2654 6.28282ZM10.5965 6.68682L10.4234 6.50646L10.4216 6.50823L10.5965 6.68682ZM10.1558 9.29444L9.92214 9.38378L9.92565 9.39208L10.1558 9.29444ZM10.6088 9.96777L10.4359 10.1485L10.4402 10.1524L10.6088 9.96777ZM11.2576 10.3595L11.1715 10.5943L11.1786 10.5967L11.2576 10.3595ZM12.5186 10.433L12.4613 10.1896L12.4613 10.1896L12.5186 10.433ZM12.8369 10.3228L12.9583 10.5413L13.0869 10.4699V10.3228H12.8369ZM12.8369 9.17202H13.0869V8.92202H12.8369V9.17202ZM11.5269 9.17202L11.3075 9.29173L11.3785 9.42202H11.5269V9.17202ZM11.38 8.81699L11.1388 8.88398L11.1429 8.89604L11.38 8.81699ZM11.5147 7.71518L11.3433 7.53304L11.3379 7.5384L11.5147 7.71518ZM14.6732 7.72742L14.4912 7.89876L14.4964 7.90428L14.5019 7.90947L14.6732 7.72742ZM14.6313 10.788C14.6313 11.02 14.5886 11.144 14.5451 11.2033L14.9483 11.499C15.0843 11.3135 15.1313 11.062 15.1313 10.788H14.6313ZM14.5451 11.2033C14.483 11.2879 14.3718 11.3855 14.1922 11.4902L14.4442 11.9221C14.6564 11.7983 14.8308 11.6592 14.9483 11.499L14.5451 11.2033ZM14.1942 11.4891C14.0945 11.5461 13.9643 11.6061 13.8007 11.6684L13.9787 12.1357C14.1579 12.0674 14.3133 11.9969 14.4422 11.9232L14.1942 11.4891ZM13.8107 11.6649C13.6504 11.7183 13.4729 11.7648 13.2775 11.8038L13.3756 12.2941C13.5883 12.2516 13.7862 12.2001 13.9688 12.1392L13.8107 11.6649ZM13.2682 11.8059C13.0756 11.8521 12.8699 11.8871 12.6511 11.9106L12.7044 12.4077C12.9426 12.3822 13.1695 12.3438 13.3849 12.2921L13.2682 11.8059ZM12.6501 11.9107C12.4389 11.9342 12.2277 11.9459 12.0166 11.9459V12.4459C12.2463 12.4459 12.4759 12.4331 12.7053 12.4076L12.6501 11.9107ZM12.0166 11.9459C11.4512 11.9459 10.9248 11.8713 10.4361 11.7239L10.2917 12.2026C10.8314 12.3654 11.4068 12.4459 12.0166 12.4459V11.9459ZM10.4396 11.725C9.95354 11.5707 9.53374 11.3447 9.1769 11.0486L8.85762 11.4334C9.26797 11.7739 9.74595 12.0294 10.2883 12.2016L10.4396 11.725ZM9.18131 11.0523C8.83446 10.7507 8.55741 10.3762 8.3509 9.92495L7.89624 10.133C8.13046 10.6448 8.44919 11.0783 8.85322 11.4296L9.18131 11.0523ZM8.3509 9.92495C8.14818 9.48198 8.04302 8.95961 8.04302 8.35178H7.54302C7.54302 9.01715 7.65823 9.61291 7.89624 10.133L8.3509 9.92495ZM8.04302 8.35178C8.04302 7.71185 8.15614 7.16637 8.37384 6.70846L7.92227 6.49378C7.6666 7.03158 7.54302 7.65321 7.54302 8.35178H8.04302ZM8.37239 6.71145C8.60315 6.24224 8.90046 5.85881 9.263 5.5567L8.94291 5.17259C8.52194 5.5234 8.18265 5.96428 7.92372 6.49079L8.37239 6.71145ZM9.26339 5.55638C9.63815 5.2428 10.0626 5.00934 10.5386 4.85579L10.3851 4.37993C9.8491 4.55284 9.3676 4.81724 8.94253 5.17291L9.26339 5.55638ZM10.5375 4.85614C11.0273 4.70066 11.5282 4.62301 12.0411 4.62301V4.12301C11.4768 4.12301 10.9248 4.20859 10.3862 4.37958L10.5375 4.85614ZM12.0411 4.62301C12.7935 4.62301 13.3576 4.74646 13.7547 4.97031L14.0002 4.53474C13.4996 4.25258 12.8395 4.12301 12.0411 4.12301V4.62301ZM13.7594 4.9729C14.1633 5.18927 14.313 5.43993 14.313 5.71967H14.813C14.813 5.19958 14.5057 4.80547 13.9955 4.53215L13.7594 4.9729ZM14.313 5.71967C14.313 5.88825 14.2716 6.02116 14.1976 6.12941L14.6102 6.41175C14.7484 6.20985 14.813 5.9755 14.813 5.71967H14.313ZM14.1976 6.12941C14.1076 6.26085 14.0082 6.35849 13.9008 6.42796L14.1724 6.84774C14.3426 6.73766 14.488 6.59045 14.6102 6.41175L14.1976 6.12941ZM14.1653 6.42347C13.9438 6.29059 13.6714 6.16598 13.3518 6.04823L13.1789 6.51741C13.4796 6.62818 13.7214 6.74026 13.908 6.85222L14.1653 6.42347ZM13.3593 6.05113C13.0227 5.91467 12.6472 5.84918 12.237 5.84918V6.34918C12.594 6.34918 12.9041 6.40612 13.1714 6.5145L13.3593 6.05113ZM12.237 5.84918C11.5014 5.84918 10.8875 6.06089 10.4234 6.50647L10.7697 6.86716C11.1217 6.52923 11.6015 6.34918 12.237 6.34918V5.84918ZM10.4216 6.50823C9.96269 6.95775 9.74665 7.5712 9.74665 8.31505H10.2466C10.2466 7.67143 10.4305 7.1994 10.7715 6.86541L10.4216 6.50823ZM9.74665 8.31505C9.74665 8.71329 9.80284 9.07131 9.92229 9.38372L10.3893 9.20515C10.2966 8.96258 10.2466 8.66768 10.2466 8.31505H9.74665ZM9.92565 9.39208C10.0515 9.68874 10.2208 9.94259 10.436 10.1484L10.7816 9.78711C10.6213 9.63384 10.4886 9.4388 10.3859 9.1968L9.92565 9.39208ZM10.4402 10.1524C10.6525 10.3463 10.897 10.4936 11.1715 10.5942L11.3437 10.1248C11.1285 10.0459 10.9404 9.93207 10.7773 9.78315L10.4402 10.1524ZM11.1786 10.5967C11.4507 10.6874 11.7388 10.7319 12.0411 10.7319V10.2319C11.7885 10.2319 11.5542 10.1949 11.3367 10.1224L11.1786 10.5967ZM12.0411 10.7319C12.2352 10.7319 12.4142 10.7144 12.5758 10.6763L12.4613 10.1896C12.3454 10.2169 12.2061 10.2319 12.0411 10.2319V10.7319ZM12.5758 10.6763C12.7237 10.6415 12.8555 10.5984 12.9583 10.5413L12.7155 10.1043C12.6713 10.1288 12.5909 10.1591 12.4613 10.1896L12.5758 10.6763ZM13.0869 10.3228V9.17202H12.5869V10.3228H13.0869ZM12.8369 8.92202H11.5269V9.42202H12.8369V8.92202ZM11.7464 9.0523C11.7072 8.98033 11.6636 8.87716 11.6172 8.73793L11.1429 8.89604C11.1944 9.05063 11.2488 9.18415 11.3075 9.29173L11.7464 9.0523ZM11.6209 8.75008C11.5866 8.62644 11.5688 8.49399 11.5688 8.35178H11.0688C11.0688 8.53603 11.0919 8.71372 11.1392 8.8839L11.6209 8.75008ZM11.5688 8.35178C11.5688 8.08647 11.629 7.95439 11.6915 7.89195L11.3379 7.5384C11.1392 7.73713 11.0688 8.02946 11.0688 8.35178H11.5688ZM11.686 7.89722C11.773 7.81539 11.8848 7.7693 12.0411 7.7693V7.2693C11.7731 7.2693 11.5339 7.35379 11.3434 7.53313L11.686 7.89722ZM12.0411 7.7693H14.1101V7.2693H12.0411V7.7693ZM14.1101 7.7693C14.3068 7.7693 14.4204 7.82355 14.4912 7.89876L14.8553 7.55608C14.6649 7.35379 14.4031 7.2693 14.1101 7.2693V7.7693ZM14.5019 7.90947C14.5771 7.98025 14.6313 8.09389 14.6313 8.29057H15.1313C15.1313 7.99755 15.0469 7.73576 14.8446 7.54537L14.5019 7.90947ZM14.6313 8.29057V10.788H15.1313V8.29057H14.6313Z" fill="black" mask="url(#path-1-outside-1_552_39)"/>
</g>
</g>
<defs>
<filter id="filter0_d_552_39" x="0.795654" y="4.37305" width="14.8159" height="7.82288" filterUnits="userSpaceOnUse" color-interpolation-filters="sRGB">
<feFlood flood-opacity="0" result="BackgroundImageFix"/>
<feColorMatrix in="SourceAlpha" type="matrix" values="0 0 0 0 0 0 0 0 0 0 0 0 0 0 0 0 0 0 127 0" result="hardAlpha"/>
<feOffset dx="0.730159"/>
<feComposite in2="hardAlpha" operator="out"/>
<feColorMatrix type="matrix" values="0 0 0 0 0 0 0 0 0 0 0 0 0 0 0 0 0 0 1 0"/>
<feBlend mode="normal" in2="BackgroundImageFix" result="effect1_dropShadow_552_39"/>
<feBlend mode="normal" in="SourceGraphic" in2="effect1_dropShadow_552_39" result="shape"/>
</filter>
<clipPath id="clip0_552_39">
<rect width="16" height="16" fill="white"/>
</clipPath>
</defs>
</svg>
